<svg width="124" height="25" viewBox="0 0 124 25" fill="none" xmlns="http://www.w3.org/2000/svg">
<path d="M11.976 15.024H5.688L4.68 18H0.384L6.48 1.152H11.232L17.328 18H12.984L11.976 15.024ZM10.944 11.904L8.832 5.688L6.744 11.904H10.944ZM23.2873 0.24V18H19.1833V0.24H23.2873ZM38.8854 11.064C38.8854 11.432 38.8614 11.824 38.8134 12.24H29.5254C29.5894 13.088 29.8534 13.736 30.3174 14.184C30.7814 14.632 31.3654 14.856 32.0694 14.856C33.0934 14.856 33.8054 14.424 34.2054 13.56H38.5734C38.3494 14.44 37.9414 15.232 37.3494 15.936C36.7734 16.64 36.0454 17.192 35.1654 17.592C34.2854 17.992 33.3014 18.192 32.2134 18.192C30.9014 18.192 29.7334 17.912 28.7094 17.352C27.6854 16.792 26.8854 15.992 26.3094 14.952C25.7334 13.912 25.4454 12.696 25.4454 11.304C25.4454 9.912 25.7254 8.696 26.2854 7.656C26.8614 6.616 27.6614 5.816 28.6854 5.256C29.7094 4.696 30.8854 4.416 32.2134 4.416C33.5094 4.416 34.6614 4.688 35.6694 5.232C36.6774 5.776 37.4614 6.552 38.0214 7.56C38.5974 8.568 38.8854 9.736 38.8854 11.064ZM34.6854 10.152C34.6854 9.384 34.4454 8.784 33.9654 8.352C33.4854 7.92 32.8854 7.704 32.1654 7.704C31.4614 7.704 30.8694 7.92 30.3894 8.352C29.9254 8.768 29.6374 9.368 29.5254 10.152H34.6854ZM60.2745 4.608L56.6505 18H52.1145L50.0025 9.312L47.8185 18H43.3065L39.6585 4.608H43.7625L45.6585 14.184L47.9145 4.608H52.2585L54.5385 14.136L56.4105 4.608H60.2745ZM61.0236 11.28C61.0236 9.904 61.2796 8.696 61.7916 7.656C62.3196 6.616 63.0316 5.816 63.9276 5.256C64.8236 4.696 65.8236 4.416 66.9276 4.416C67.8716 4.416 68.6956 4.608 69.3996 4.992C70.1196 5.376 70.6716 5.88 71.0556 6.504V4.608H75.1596V18H71.0556V16.104C70.6556 16.728 70.0956 17.232 69.3756 17.616C68.6716 18 67.8476 18.192 66.9036 18.192C65.8156 18.192 64.8236 17.912 63.9276 17.352C63.0316 16.776 62.3196 15.968 61.7916 14.928C61.2796 13.872 61.0236 12.656 61.0236 11.28ZM71.0556 11.304C71.0556 10.28 70.7676 9.472 70.1916 8.88C69.6316 8.288 68.9436 7.992 68.1276 7.992C67.3116 7.992 66.6156 8.288 66.0396 8.88C65.4796 9.456 65.1996 10.256 65.1996 11.28C65.1996 12.304 65.4796 13.12 66.0396 13.728C66.6156 14.32 67.3116 14.616 68.1276 14.616C68.9436 14.616 69.6316 14.32 70.1916 13.728C70.7676 13.136 71.0556 12.328 71.0556 11.304ZM90.9686 6.576C90.9686 7.552 90.7446 8.448 90.2966 9.264C89.8486 10.064 89.1606 10.712 88.2326 11.208C87.3046 11.704 86.1526 11.952 84.7766 11.952H82.2326V18H78.1286V1.152H84.7766C86.1206 1.152 87.2566 1.384 88.1846 1.848C89.1126 2.312 89.8086 2.952 90.2726 3.768C90.7366 4.584 90.9686 5.52 90.9686 6.576ZM84.4646 8.736C85.2486 8.736 85.8326 8.544 86.2166 8.16C86.6006 7.776 86.7926 7.248 86.7926 6.576C86.7926 5.904 86.6006 5.376 86.2166 4.992C85.8326 4.608 85.2486 4.416 84.4646 4.416H82.2326V8.736H84.4646ZM92.2892 11.28C92.2892 9.904 92.5452 8.696 93.0572 7.656C93.5852 6.616 94.2972 5.816 95.1932 5.256C96.0892 4.696 97.0892 4.416 98.1932 4.416C99.1372 4.416 99.9612 4.608 100.665 4.992C101.385 5.376 101.937 5.88 102.321 6.504V4.608H106.425V18H102.321V16.104C101.921 16.728 101.361 17.232 100.641 17.616C99.9372 18 99.1132 18.192 98.1692 18.192C97.0812 18.192 96.0892 17.912 95.1932 17.352C94.2972 16.776 93.5852 15.968 93.0572 14.928C92.5452 13.872 92.2892 12.656 92.2892 11.28ZM102.321 11.304C102.321 10.28 102.033 9.472 101.457 8.88C100.897 8.288 100.209 7.992 99.3932 7.992C98.5772 7.992 97.8812 8.288 97.3052 8.88C96.7452 9.456 96.4652 10.256 96.4652 11.28C96.4652 12.304 96.7452 13.12 97.3052 13.728C97.8812 14.32 98.5772 14.616 99.3932 14.616C100.209 14.616 100.897 14.32 101.457 13.728C102.033 13.136 102.321 12.328 102.321 11.304ZM112.466 4.608L115.562 12.984L118.634 4.608H123.074L114.674 24.36H110.258L113.33 17.544L107.882 4.608H112.466Z" fill="white"/>
</svg>
