<svg width="26" height="26" viewBox="0 0 26 26" fill="none" xmlns="http://www.w3.org/2000/svg">
<path d="M13.5416 11.1045C13.5416 10.889 13.6272 10.6823 13.7796 10.53C13.932 10.3776 14.1387 10.292 14.3541 10.292H18.1458C18.3613 10.292 18.568 10.3776 18.7203 10.53C18.8727 10.6823 18.9583 10.889 18.9583 11.1045C18.9583 11.32 18.8727 11.5266 18.7203 11.679C18.568 11.8314 18.3613 11.917 18.1458 11.917H14.3541C14.1387 11.917 13.932 11.8314 13.7796 11.679C13.6272 11.5266 13.5416 11.32 13.5416 11.1045ZM14.3541 16.2503C14.1387 16.2503 13.932 16.3359 13.7796 16.4883C13.6272 16.6407 13.5416 16.8473 13.5416 17.0628C13.5416 17.2783 13.6272 17.485 13.7796 17.6373C13.932 17.7897 14.1387 17.8753 14.3541 17.8753H18.1458C18.3613 17.8753 18.568 17.7897 18.7203 17.6373C18.8727 17.485 18.9583 17.2783 18.9583 17.0628C18.9583 16.8473 18.8727 16.6407 18.7203 16.4883C18.568 16.3359 18.3613 16.2503 18.1458 16.2503H14.3541ZM11.6783 10.5953C11.7581 10.5209 11.8222 10.4312 11.8666 10.3316C11.911 10.2319 11.9349 10.1243 11.9368 10.0152C11.9387 9.90613 11.9186 9.79776 11.8778 9.69659C11.8369 9.59542 11.7761 9.50352 11.6989 9.42637C11.6218 9.34921 11.5299 9.28839 11.4287 9.24753C11.3275 9.20666 11.2192 9.18659 11.1101 9.18852C11.001 9.19044 10.8934 9.21432 10.7937 9.25873C10.6941 9.30314 10.6044 9.36716 10.53 9.44699L8.93748 11.0395L8.42831 10.5303C8.27429 10.3868 8.07057 10.3087 7.86008 10.3124C7.64959 10.3161 7.44875 10.4014 7.29989 10.5502C7.15103 10.6991 7.06575 10.8999 7.06204 11.1104C7.05833 11.3209 7.13646 11.5246 7.27998 11.6787L8.36331 12.762C8.51566 12.9141 8.72217 12.9996 8.93748 12.9996C9.15279 12.9996 9.3593 12.9141 9.51165 12.762L11.6783 10.5953ZM11.6783 15.4053C11.8305 15.5577 11.9159 15.7642 11.9159 15.9795C11.9159 16.1948 11.8305 16.4013 11.6783 16.5537L9.51165 18.7203C9.3593 18.8725 9.15279 18.9579 8.93748 18.9579C8.72217 18.9579 8.51566 18.8725 8.36331 18.7203L7.27998 17.637C7.20015 17.5626 7.13612 17.4729 7.09172 17.3732C7.04731 17.2736 7.02343 17.166 7.02151 17.0569C7.01958 16.9478 7.03965 16.8394 7.08051 16.7383C7.12138 16.6371 7.1822 16.5452 7.25935 16.468C7.33651 16.3909 7.42841 16.3301 7.52958 16.2892C7.63075 16.2483 7.73912 16.2283 7.84821 16.2302C7.95731 16.2321 8.0649 16.256 8.16456 16.3004C8.26423 16.3448 8.35393 16.4088 8.42831 16.4887L8.93748 16.9978L10.53 15.4053C10.6823 15.2532 10.8888 15.1677 11.1041 15.1677C11.3195 15.1677 11.526 15.2532 11.6783 15.4053ZM17.3268 4.42466C17.2814 3.81098 17.0056 3.23717 16.5547 2.81842C16.1038 2.39967 15.5112 2.16696 14.8958 2.16699H11.1041C10.5046 2.16701 9.92607 2.388 9.47919 2.78771C9.03232 3.18742 8.74843 3.73781 8.68181 4.33366H6.77081C6.12435 4.33366 5.50436 4.59047 5.04724 5.04759C4.59012 5.50471 4.33331 6.12469 4.33331 6.77116V21.3962C4.33331 22.0426 4.59012 22.6626 5.04724 23.1197C5.50436 23.5768 6.12435 23.8337 6.77081 23.8337H19.2291C19.5492 23.8337 19.8662 23.7706 20.1619 23.6481C20.4577 23.5256 20.7264 23.3461 20.9527 23.1197C21.1791 22.8934 21.3586 22.6247 21.4811 22.3289C21.6036 22.0332 21.6666 21.7163 21.6666 21.3962V6.77116C21.6666 6.45106 21.6036 6.1341 21.4811 5.83837C21.3586 5.54264 21.1791 5.27393 20.9527 5.04759C20.7264 4.82124 20.4577 4.6417 20.1619 4.5192C19.8662 4.39671 19.5492 4.33366 19.2291 4.33366H17.3181L17.3268 4.42466ZM17.3268 4.43766L17.3333 4.60449C17.3333 4.54816 17.3311 4.49291 17.3279 4.43766H17.3268ZM11.1041 7.04199H14.8958C15.7408 7.04199 16.4851 6.61191 16.9227 5.95866H19.2291C19.4446 5.95866 19.6513 6.04426 19.8037 6.19663C19.956 6.34901 20.0416 6.55567 20.0416 6.77116V21.3962C20.0416 21.6116 19.956 21.8183 19.8037 21.9707C19.6513 22.1231 19.4446 22.2087 19.2291 22.2087H6.77081C6.55532 22.2087 6.34866 22.1231 6.19629 21.9707C6.04392 21.8183 5.95831 21.6116 5.95831 21.3962V6.77116C5.95831 6.55567 6.04392 6.34901 6.19629 6.19663C6.34866 6.04426 6.55532 5.95866 6.77081 5.95866H9.07723C9.5149 6.61191 10.2591 7.04199 11.1041 7.04199ZM11.1041 3.79199H14.8958C15.1113 3.79199 15.318 3.87759 15.4703 4.02997C15.6227 4.18234 15.7083 4.389 15.7083 4.60449C15.7083 4.81998 15.6227 5.02664 15.4703 5.17902C15.318 5.33139 15.1113 5.41699 14.8958 5.41699H11.1041C10.8887 5.41699 10.682 5.33139 10.5296 5.17902C10.3772 5.02664 10.2916 4.81998 10.2916 4.60449C10.2916 4.389 10.3772 4.18234 10.5296 4.02997C10.682 3.87759 10.8887 3.79199 11.1041 3.79199Z" fill="#AFB0D1"/>
</svg>
