<svg width="31" height="31" viewBox="0 0 31 31" fill="none" xmlns="http://www.w3.org/2000/svg">
<path d="M10 27.875H4.5C4.13533 27.875 3.78559 27.7301 3.52773 27.4723C3.26987 27.2144 3.125 26.8647 3.125 26.5V21C3.125 20.6353 2.98013 20.2856 2.72227 20.0277C2.46441 19.7699 2.11467 19.625 1.75 19.625C1.38533 19.625 1.03559 19.7699 0.777728 20.0277C0.519866 20.2856 0.375 20.6353 0.375 21V26.5C0.375 27.594 0.809597 28.6432 1.58318 29.4168C2.35677 30.1904 3.40598 30.625 4.5 30.625H10C10.3647 30.625 10.7144 30.4801 10.9723 30.2223C11.2301 29.9644 11.375 29.6147 11.375 29.25C11.375 28.8853 11.2301 28.5356 10.9723 28.2777C10.7144 28.0199 10.3647 27.875 10 27.875ZM29.25 19.625C28.8853 19.625 28.5356 19.7699 28.2777 20.0277C28.0199 20.2856 27.875 20.6353 27.875 21V26.5C27.875 26.8647 27.7301 27.2144 27.4723 27.4723C27.2144 27.7301 26.8647 27.875 26.5 27.875H21C20.6353 27.875 20.2856 28.0199 20.0277 28.2777C19.7699 28.5356 19.625 28.8853 19.625 29.25C19.625 29.6147 19.7699 29.9644 20.0277 30.2223C20.2856 30.4801 20.6353 30.625 21 30.625H26.5C27.594 30.625 28.6432 30.1904 29.4168 29.4168C30.1904 28.6432 30.625 27.594 30.625 26.5V21C30.625 20.6353 30.4801 20.2856 30.2223 20.0277C29.9644 19.7699 29.6147 19.625 29.25 19.625ZM26.5 0.375H21C20.6353 0.375 20.2856 0.519866 20.0277 0.777728C19.7699 1.03559 19.625 1.38533 19.625 1.75C19.625 2.11467 19.7699 2.46441 20.0277 2.72227C20.2856 2.98013 20.6353 3.125 21 3.125H26.5C26.8647 3.125 27.2144 3.26987 27.4723 3.52773C27.7301 3.78559 27.875 4.13533 27.875 4.5V10C27.875 10.3647 28.0199 10.7144 28.2777 10.9723C28.5356 11.2301 28.8853 11.375 29.25 11.375C29.6147 11.375 29.9644 11.2301 30.2223 10.9723C30.4801 10.7144 30.625 10.3647 30.625 10V4.5C30.625 3.40598 30.1904 2.35677 29.4168 1.58318C28.6432 0.809597 27.594 0.375 26.5 0.375ZM1.75 11.375C2.11467 11.375 2.46441 11.2301 2.72227 10.9723C2.98013 10.7144 3.125 10.3647 3.125 10V4.5C3.125 4.13533 3.26987 3.78559 3.52773 3.52773C3.78559 3.26987 4.13533 3.125 4.5 3.125H10C10.3647 3.125 10.7144 2.98013 10.9723 2.72227C11.2301 2.46441 11.375 2.11467 11.375 1.75C11.375 1.38533 11.2301 1.03559 10.9723 0.777728C10.7144 0.519866 10.3647 0.375 10 0.375H4.5C3.40598 0.375 2.35677 0.809597 1.58318 1.58318C0.809597 2.35677 0.375 3.40598 0.375 4.5V10C0.375 10.3647 0.519866 10.7144 0.777728 10.9723C1.03559 11.2301 1.38533 11.375 1.75 11.375ZM12.75 5.875H7.25C6.88533 5.875 6.53559 6.01987 6.27773 6.27773C6.01987 6.53559 5.875 6.88533 5.875 7.25V12.75C5.875 13.1147 6.01987 13.4644 6.27773 13.7223C6.53559 13.9801 6.88533 14.125 7.25 14.125H12.75C13.1147 14.125 13.4644 13.9801 13.7223 13.7223C13.9801 13.4644 14.125 13.1147 14.125 12.75V7.25C14.125 6.88533 13.9801 6.53559 13.7223 6.27773C13.4644 6.01987 13.1147 5.875 12.75 5.875ZM11.375 11.375H8.625V8.625H11.375V11.375ZM18.25 14.125H23.75C24.1147 14.125 24.4644 13.9801 24.7223 13.7223C24.9801 13.4644 25.125 13.1147 25.125 12.75V7.25C25.125 6.88533 24.9801 6.53559 24.7223 6.27773C24.4644 6.01987 24.1147 5.875 23.75 5.875H18.25C17.8853 5.875 17.5356 6.01987 17.2777 6.27773C17.0199 6.53559 16.875 6.88533 16.875 7.25V12.75C16.875 13.1147 17.0199 13.4644 17.2777 13.7223C17.5356 13.9801 17.8853 14.125 18.25 14.125ZM19.625 8.625H22.375V11.375H19.625V8.625ZM12.75 16.875H7.25C6.88533 16.875 6.53559 17.0199 6.27773 17.2777C6.01987 17.5356 5.875 17.8853 5.875 18.25V23.75C5.875 24.1147 6.01987 24.4644 6.27773 24.7223C6.53559 24.9801 6.88533 25.125 7.25 25.125H12.75C13.1147 25.125 13.4644 24.9801 13.7223 24.7223C13.9801 24.4644 14.125 24.1147 14.125 23.75V18.25C14.125 17.8853 13.9801 17.5356 13.7223 17.2777C13.4644 17.0199 13.1147 16.875 12.75 16.875ZM11.375 22.375H8.625V19.625H11.375V22.375ZM18.25 21C18.6147 21 18.9644 20.8551 19.2223 20.5973C19.4801 20.3394 19.625 19.9897 19.625 19.625C19.9897 19.625 20.3394 19.4801 20.5973 19.2223C20.8551 18.9644 21 18.6147 21 18.25C21 17.8853 20.8551 17.5356 20.5973 17.2777C20.3394 17.0199 19.9897 16.875 19.625 16.875H18.25C17.8853 16.875 17.5356 17.0199 17.2777 17.2777C17.0199 17.5356 16.875 17.8853 16.875 18.25V19.625C16.875 19.9897 17.0199 20.3394 17.2777 20.5973C17.5356 20.8551 17.8853 21 18.25 21ZM23.75 16.875C23.3853 16.875 23.0356 17.0199 22.7777 17.2777C22.5199 17.5356 22.375 17.8853 22.375 18.25V22.375C22.0103 22.375 21.6606 22.5199 21.4027 22.7777C21.1449 23.0356 21 23.3853 21 23.75C21 24.1147 21.1449 24.4644 21.4027 24.7223C21.6606 24.9801 22.0103 25.125 22.375 25.125H23.75C24.1147 25.125 24.4644 24.9801 24.7223 24.7223C24.9801 24.4644 25.125 24.1147 25.125 23.75V18.25C25.125 17.8853 24.9801 17.5356 24.7223 17.2777C24.4644 17.0199 24.1147 16.875 23.75 16.875ZM18.25 22.375C17.9781 22.375 17.7122 22.4556 17.4861 22.6067C17.26 22.7578 17.0837 22.9726 16.9797 23.2238C16.8756 23.4751 16.8484 23.7515 16.9014 24.0182C16.9545 24.285 17.0854 24.53 17.2777 24.7223C17.47 24.9146 17.715 25.0455 17.9818 25.0986C18.2485 25.1516 18.5249 25.1244 18.7762 25.0203C19.0274 24.9163 19.2422 24.74 19.3933 24.5139C19.5444 24.2878 19.625 24.0219 19.625 23.75C19.625 23.3853 19.4801 23.0356 19.2223 22.7777C18.9644 22.5199 18.6147 22.375 18.25 22.375Z" fill="#243656"/>
</svg>
