<svg width="26" height="22" viewBox="0 0 26 22" fill="none" xmlns="http://www.w3.org/2000/svg">
<path d="M13 13.5V1M8 4.75H4.25C3.58696 4.75 2.95107 5.01339 2.48223 5.48223C2.01339 5.95107 1.75 6.58696 1.75 7.25V18.5C1.75 19.163 2.01339 19.7989 2.48223 20.2678C2.95107 20.7366 3.58696 21 4.25 21H21.75C22.413 21 23.0489 20.7366 23.5178 20.2678C23.9866 19.7989 24.25 19.163 24.25 18.5V7.25C24.25 6.58696 23.9866 5.95107 23.5178 5.48223C23.0489 5.01339 22.413 4.75 21.75 4.75H18H8ZM16.75 9.75L13 13.5L16.75 9.75ZM13 13.5L9.25 9.75L13 13.5Z" stroke="#243656" stroke-width="2" stroke-linecap="round" stroke-linejoin="round"/>
</svg>
