<svg width="12" height="16" viewBox="0 0 12 16" fill="none" xmlns="http://www.w3.org/2000/svg">
<path d="M3.1875 13.625V15.0312C3.1875 15.1865 3.3135 15.3125 3.46875 15.3125H4.59375C4.66834 15.3125 4.73988 15.2829 4.79262 15.2301C4.84537 15.1774 4.875 15.1058 4.875 15.0312V13.625H5.4375V15.0312C5.4375 15.1865 5.5635 15.3125 5.71875 15.3125H6.84375C6.91834 15.3125 6.98988 15.2829 7.04262 15.2301C7.09537 15.1774 7.125 15.1058 7.125 15.0312V13.625H7.2195C9.4605 13.625 11.0625 12.4629 11.0625 10.4525C11.0625 8.76275 9.92962 7.83912 8.60325 7.7075V7.6085C9.6945 7.33625 10.4966 6.51275 10.4966 5.14475C10.4966 3.42125 9.20288 2.375 7.2285 2.375H7.125V0.96875C7.125 0.894158 7.09537 0.822621 7.04262 0.769876C6.98988 0.717132 6.91834 0.6875 6.84375 0.6875H5.71875C5.64416 0.6875 5.57262 0.717132 5.51988 0.769876C5.46713 0.822621 5.4375 0.894158 5.4375 0.96875V2.375H4.79288V0.96875C4.79288 0.894158 4.76324 0.822621 4.7105 0.769876C4.65775 0.717132 4.58622 0.6875 4.51163 0.6875H3.46875C3.39416 0.6875 3.32262 0.717132 3.26988 0.769876C3.21713 0.822621 3.1875 0.894158 3.1875 0.96875V2.375L0.939751 2.38737C0.865159 2.38737 0.793621 2.41701 0.740877 2.46975C0.688132 2.5225 0.658501 2.59403 0.658501 2.66862V3.78125C0.658501 3.93537 0.782251 4.0625 0.937501 4.0625L1.78688 4.05687C2.00968 4.05836 2.22284 4.14791 2.37986 4.30598C2.53688 4.46406 2.62501 4.67782 2.625 4.90062V11.0938C2.625 11.3175 2.53611 11.5321 2.37787 11.6904C2.21964 11.8486 2.00503 11.9375 1.78125 11.9375L0.939751 11.9499C0.865159 11.9499 0.793621 11.9795 0.740877 12.0323C0.688132 12.085 0.658501 12.1565 0.658501 12.2311V13.3561C0.658501 13.5114 0.784501 13.6374 0.939751 13.6374L3.1875 13.625ZM4.79288 4.04787H6.72675C7.746 4.04787 8.3445 4.60812 8.3445 5.52387C8.3445 6.50375 7.69762 7.05612 6.23287 7.05612H4.79288V4.04787ZM4.79288 8.60525H6.86288C8.142 8.60525 8.83838 9.25775 8.83838 10.3197C8.83838 11.3919 8.13412 11.951 6.41062 11.951H4.79288V8.60637V8.60525Z" fill="#F7FAFC"/>
</svg>
