<svg width="18" height="18" viewBox="0 0 18 18" fill="none" xmlns="http://www.w3.org/2000/svg">
<path d="M7.88293 4.96347C8.14225 4.96347 8.39094 4.86046 8.5743 4.6771C8.75766 4.49373 8.86067 4.24504 8.86067 3.98573C8.86067 3.72642 8.75766 3.47773 8.5743 3.29436C8.39094 3.111 8.14225 3.00799 7.88293 3.00799C7.62362 3.00799 7.37493 3.111 7.19157 3.29436C7.00821 3.47773 6.90519 3.72642 6.90519 3.98573C6.90519 4.24504 7.00821 4.49373 7.19157 4.6771C7.37493 4.86046 7.62362 4.96347 7.88293 4.96347ZM8.84242 0.340716C8.57122 0.120314 8.2324 0 7.88293 0C7.53346 0 7.19465 0.120314 6.92345 0.340716L0.402573 5.64137C-0.390048 6.28668 0.0662307 7.57078 1.08829 7.57078H1.36467V13.0461C0.590299 13.4411 0.061016 14.2455 0.061016 15.175V16.0445C0.061016 16.2174 0.12969 16.3832 0.251932 16.5054C0.374173 16.6277 0.539967 16.6963 0.712842 16.6963H4.41131C4.21515 16.2841 4.08242 15.8446 4.0176 15.3927H1.36467V15.175C1.36467 14.5753 1.85093 14.089 2.45061 14.089H4.0176C4.15535 13.1293 4.59612 12.2386 5.27563 11.5469V7.57078H7.23111V10.3671C7.65423 10.2414 8.09335 10.1777 8.53476 10.1781V7.57078H10.4902V10.1781H11.7939V7.57078H13.0975V10.1781H13.7494C13.971 10.1781 14.1887 10.1937 14.4012 10.2237V7.57078H14.6776C15.6996 7.57078 16.1559 6.28668 15.362 5.64137L8.84373 0.340716H8.84242ZM7.74735 1.35235C7.7861 1.32102 7.83441 1.30394 7.88424 1.30394C7.93406 1.30394 7.98238 1.32102 8.02112 1.35235L14.0636 6.26712H1.70101L7.74735 1.35235ZM3.97198 12.7854H2.66832V7.57078H3.97198V12.7854ZM8.53476 11.4817C7.67038 11.4817 6.84141 11.8251 6.23021 12.4363C5.619 13.0475 5.27563 13.8765 5.27563 14.7409C5.27563 15.6052 5.619 16.4342 6.23021 17.0454C6.84141 17.6566 7.67038 18 8.53476 18H9.18659C9.35946 18 9.52526 17.9313 9.6475 17.8091C9.76974 17.6868 9.83841 17.521 9.83841 17.3482C9.83841 17.1753 9.76974 17.0095 9.6475 16.8873C9.52526 16.765 9.35946 16.6963 9.18659 16.6963H8.53476C8.01614 16.6963 7.51875 16.4903 7.15203 16.1236C6.7853 15.7569 6.57928 15.2595 6.57928 14.7409C6.57928 14.2222 6.7853 13.7249 7.15203 13.3581C7.51875 12.9914 8.01614 12.7854 8.53476 12.7854H9.18659C9.35946 12.7854 9.52526 12.7167 9.6475 12.5945C9.76974 12.4722 9.83841 12.3064 9.83841 12.1336C9.83841 11.9607 9.76974 11.7949 9.6475 11.6726C9.52526 11.5504 9.35946 11.4817 9.18659 11.4817H8.53476ZM13.0975 11.4817C12.9247 11.4817 12.7589 11.5504 12.6366 11.6726C12.5144 11.7949 12.4457 11.9607 12.4457 12.1336C12.4457 12.3064 12.5144 12.4722 12.6366 12.5945C12.7589 12.7167 12.9247 12.7854 13.0975 12.7854H13.7494C14.268 12.7854 14.7654 12.9914 15.1321 13.3581C15.4988 13.7249 15.7049 14.2222 15.7049 14.7409C15.7049 15.2595 15.4988 15.7569 15.1321 16.1236C14.7654 16.4903 14.268 16.6963 13.7494 16.6963H13.0975C12.9247 16.6963 12.7589 16.765 12.6366 16.8873C12.5144 17.0095 12.4457 17.1753 12.4457 17.3482C12.4457 17.521 12.5144 17.6868 12.6366 17.8091C12.7589 17.9313 12.9247 18 13.0975 18H13.7494C14.6137 18 15.4427 17.6566 16.0539 17.0454C16.6651 16.4342 17.0085 15.6052 17.0085 14.7409C17.0085 13.8765 16.6651 13.0475 16.0539 12.4363C15.4427 11.8251 14.6137 11.4817 13.7494 11.4817H13.0975ZM7.88293 14.7409C7.88293 14.568 7.95161 14.4022 8.07385 14.28C8.19609 14.1577 8.36189 14.089 8.53476 14.089H13.7494C13.9222 14.089 14.088 14.1577 14.2103 14.28C14.3325 14.4022 14.4012 14.568 14.4012 14.7409C14.4012 14.9137 14.3325 15.0795 14.2103 15.2018C14.088 15.324 13.9222 15.3927 13.7494 15.3927H8.53476C8.36189 15.3927 8.19609 15.324 8.07385 15.2018C7.95161 15.0795 7.88293 14.9137 7.88293 14.7409Z" fill="#F7FAFC"/>
</svg>
