<svg width="26" height="26" viewBox="0 0 26 26" fill="none" xmlns="http://www.w3.org/2000/svg">
<path d="M17.3333 13H19.5V17.3333H17.3333V13Z" fill="#AFB0D1"/>
<path d="M21.6667 7.58333V5.41667C21.6667 4.22175 20.6949 3.25 19.5 3.25H5.41669C3.62485 3.25 2.16669 4.70817 2.16669 6.5V19.5C2.16669 21.8844 4.11019 22.75 5.41669 22.75H21.6667C22.8616 22.75 23.8334 21.7783 23.8334 20.5833V9.75C23.8334 8.55508 22.8616 7.58333 21.6667 7.58333ZM5.41669 5.41667H19.5V7.58333H5.41669C5.13775 7.57086 4.87438 7.45127 4.6814 7.24947C4.48843 7.04767 4.38073 6.77922 4.38073 6.5C4.38073 6.22078 4.48843 5.95233 4.6814 5.75053C4.87438 5.54873 5.13775 5.42914 5.41669 5.41667ZM21.6667 20.5833H5.42969C4.92919 20.5703 4.33335 20.3721 4.33335 19.5V9.54958C4.67352 9.672 5.03427 9.75 5.41669 9.75H21.6667V20.5833Z" fill="#AFB0D1"/>
</svg>
